<?xml version="1.0" encoding="UTF-8" standalone="no"?>
<svg width="24px" height="44px" viewBox="0 0 24 44" version="1.1" xmlns="http://www.w3.org/2000/svg" xmlns:xlink="http://www.w3.org/1999/xlink">
    <!-- Generator: Sketch 3.6.1 (26313) - http://www.bohemiancoding.com/sketch -->
    <title>pin-dot-blue</title>
    <desc>Created with Sketch.</desc>
    <defs></defs>
    <g id="Page-1" stroke="none" stroke-width="1" fill="none" fill-rule="evenodd">
        <g id="pin-dot-blue" fill="#5596E6">
            <g id="location" transform="translate(0.500000, 0.000000)">
                <g id="Artboard-1-Copy">
                    <g id="Icons">
                        <g id="Artboard-1-Copy">
                            <g id="Page-1">
                                <path d="M18.1094069,18.3054667 L11.4206897,25.2756 L4.72911724,18.3026667 C2.90751724,16.4108 1.90344828,13.8889333 1.90344828,11.2 C1.90344828,8.70706667 2.89324138,6.36346667 4.692,4.6004 C6.48885517,2.83733333 8.87863448,1.86666667 11.4206897,1.86666667 C13.9627448,1.86666667 16.3525241,2.83733333 18.1493793,4.60133333 C19.9471862,6.36346667 20.937931,8.70706667 20.937931,11.2 C20.937931,13.8889333 19.9338621,16.4108 18.1094069,18.3054667 M19.4951172,3.28066667 C17.4289241,1.25346667 14.5737517,0 11.4206897,0 C8.26667586,0 5.41150345,1.25346667 3.34626207,3.28066667 C1.27911724,5.30786667 0,8.10693333 0,11.2 C0,14.4741333 1.27911724,17.4393333 3.34626207,19.5850667 L11.4206897,28 L19.4951172,19.5850667 C21.5622621,17.4393333 22.8413793,14.4741333 22.8413793,11.2 C22.8413793,8.10693333 21.5622621,5.30786667 19.4951172,3.28066667" id="Fill-1"></path>
                                <path d="M15.2275862,11.2 C15.2275862,13.2617333 13.5230483,14.9333333 11.4206897,14.9333333 C9.31833103,14.9333333 7.6137931,13.2617333 7.6137931,11.2 C7.6137931,9.13826667 9.31833103,7.46666667 11.4206897,7.46666667 C13.5230483,7.46666667 15.2275862,9.13826667 15.2275862,11.2 Z" id="Fill-3"></path>
                            </g>
                        </g>
                    </g>
                </g>
            </g>
            <g id="dot" transform="translate(6.000000, 32.000000)">
                <g id="Artboard-1-Copy-2">
                    <g id="Icons">
                        <g id="Artboard-1-Copy-2">
                            <path d="M6,12 C9.3137085,12 12,9.3137085 12,6 C12,2.6862915 9.3137085,0 6,0 C2.6862915,0 0,2.6862915 0,6 C0,9.3137085 2.6862915,12 6,12 Z" id="Oval-9"></path>
                        </g>
                    </g>
                </g>
            </g>
        </g>
    </g>
</svg>