<?xml version="1.0" encoding="UTF-8" standalone="no"?>
<svg width="98px" height="98px" viewBox="0 0 98 98" version="1.1" xmlns="http://www.w3.org/2000/svg" xmlns:xlink="http://www.w3.org/1999/xlink">
    <!-- Generator: Sketch 3.6.1 (26313) - http://www.bohemiancoding.com/sketch -->
    <title>Artboard 17 Copy</title>
    <desc>Created with Sketch.</desc>
    <defs>
        <path d="M39,29 L0,29 L0,60 L56,60 L56,46 L53,46 L53,57 L3,57 L3,32 L39,32 L39,29 Z" id="path-1"></path>
    </defs>
    <g id="Icons" stroke="none" stroke-width="1" fill="none" fill-rule="evenodd">
        <g id="Artboard-17-Copy">
            <g id="Group" transform="translate(5.000000, 20.000000)">
                <path d="M44.6666667,26 L44.6666667,28.2857143 L54.1904762,28.2857143 L42,40.4761905 L43.5238095,42 L55.7142857,30 L55.7142857,39.3333333 L58,39.3333333 L58,26 L44.6666667,26 Z" id="Shape" fill="#222222"></path>
                <g id="Combined-Shape">
                    <use fill="none" xlink:href="#path-1"></use>
                    <use fill="#222222" fill-rule="evenodd" xlink:href="#path-1"></use>
                </g>
                <path d="M62,50 L88,50 L88,0 L10,0 L10,22 L13,22 L13,3 L85,3 L85,47 L62,47 L62,50 Z" id="Combined-Shape" fill="#222222"></path>
            </g>
        </g>
    </g>
</svg>