<?xml version="1.0" encoding="UTF-8" standalone="no"?>
<svg width="90px" height="54px" viewBox="0 0 90 54" version="1.1" xmlns="http://www.w3.org/2000/svg" xmlns:xlink="http://www.w3.org/1999/xlink">
    <!-- Generator: Sketch 3.6.1 (26313) - http://www.bohemiancoding.com/sketch -->
    <title>empty-ship</title>
    <desc>Created with Sketch.</desc>
    <defs>
        <path id="path-1" d="M89.620304,9.03292937 L89.620304,0.0831128957 L0.00028006345,0.0831128957 L0.00028006345,9.03292937 L89.620304,9.03292937 L89.620304,9.03292937 Z"></path>
    </defs>
    <g id="Page-1" stroke="none" stroke-width="1" fill="none" fill-rule="evenodd">
        <g id="Artboard-1" transform="translate(-529.000000, -730.000000)">
            <g id="empty-ship" transform="translate(529.000000, 730.000000)">
                <path d="M62.749021,29.282671 L62.749021,23.1385892 L55.9910901,23.1385886 L55.5219838,0 L52.2270373,0 L51.6417047,23.1385886 L45,23.1385892 L45,29.282671 L46.4045182,29.2826709" id="Fill-7" fill="#FEFEFE"></path>
                <path d="M5.5316001,53.8176082 L69.9237885,53.8176082 L81.2481541,41 L2,41 L5.5316001,53.8176082 Z" id="Fill-9" fill="#5596E6"></path>
                <g id="Group-13" transform="translate(0.000000, 32.000000)">
                    <mask id="mask-2" fill="white">
                        <use xlink:href="#path-1"></use>
                    </mask>
                    <g id="Clip-12"></g>
                    <path d="M78.130981,6.16220361 L74.0000451,6.16220361 C74.0000451,6.16220361 73.6219595,6.12257459 73.6219595,5.51070262 L73.6219595,4.1934342 C73.6219595,4.1934342 73.6135576,3.64338349 74.0000451,3.64338349 L75.6776252,3.64338349 L76.3007664,3.64338349 L78.0119541,3.64338349 C78.0119541,3.64338349 78.3858388,3.72264152 78.3858388,4.290129 L78.3858388,5.72152898 C78.3858388,5.72152898 78.3634337,6.16220361 78.130981,6.16220361 L78.130981,6.16220361 Z M71.1896084,5.72152898 C71.1896084,5.72152898 71.1672033,6.16220361 70.9347507,6.16220361 L66.8024145,6.16220361 C66.8024145,6.16220361 66.4257291,6.12257459 66.4257291,5.51070262 L66.4257291,4.1934342 C66.4257291,4.1934342 66.4173272,3.64338349 66.8024145,3.64338349 L68.4799945,3.64338349 L69.104536,3.64338349 L70.8157237,3.64338349 C70.8157237,3.64338349 71.1896084,3.72264152 71.1896084,4.290129 L71.1896084,5.72152898 Z M18.9213667,6.68847691 C18.0503694,6.68847691 17.3446095,5.88955599 17.3446095,4.90358613 C17.3446095,3.91761627 18.0503694,3.11869535 18.9213667,3.11869535 C19.7923641,3.11869535 20.498124,3.91761627 20.498124,4.90358613 C20.498124,5.88955599 19.7923641,6.68847691 18.9213667,6.68847691 L18.9213667,6.68847691 Z M13.3341009,6.68847691 C12.4645039,6.68847691 11.7573437,5.88955599 11.7573437,4.90358613 C11.7573437,3.91761627 12.4645039,3.11869535 13.3341009,3.11869535 C14.2050982,3.11869535 14.9108581,3.91761627 14.9108581,4.90358613 C14.9108581,5.88955599 14.2050982,6.68847691 13.3341009,6.68847691 L13.3341009,6.68847691 Z M7.74823541,6.68847691 C6.87723808,6.68847691 6.17147818,5.88955599 6.17147818,4.90358613 C6.17147818,3.91761627 6.87723808,3.11869535 7.74823541,3.11869535 C8.61923274,3.11869535 9.32499263,3.91761627 9.32499263,4.90358613 C9.32499263,5.88955599 8.61923274,6.68847691 7.74823541,6.68847691 L7.74823541,6.68847691 Z M0.00028006345,0.0831128957 L2.46623874,9.03292937 L81.7129926,9.03292937 L89.6205841,0.0831128957 L0.00028006345,0.0831128957 Z" id="Fill-11" fill="#FEFEFE" mask="url(#mask-2)"></path>
                </g>
            </g>
        </g>
    </g>
</svg>