<?xml version="1.0" encoding="UTF-8" standalone="no"?>
<svg width="70px" height="30px" viewBox="0 0 70 30" version="1.1" xmlns="http://www.w3.org/2000/svg" xmlns:xlink="http://www.w3.org/1999/xlink">
    <!-- Generator: Sketch 3.6.1 (26313) - http://www.bohemiancoding.com/sketch -->
    <title>empty-truck</title>
    <desc>Created with Sketch.</desc>
    <defs>
        <path id="path-1" d="M50.4079466,0.945037221 L0.0147118401,0.945037221 L0.0147118401,25.4141046 L50.4079466,25.4141046 L50.4079466,0.945037221 L50.4079466,0.945037221 Z"></path>
        <path id="path-3" d="M0.309215304,10.9379308 L10.8096289,10.9379308 L10.8096289,0.437626611 L0.309215304,0.437626611 L0.309215304,10.9379308 L0.309215304,10.9379308 Z"></path>
        <path id="path-5" d="M0.00579710332,10.9379308 L10.5062107,10.9379308 L10.5062107,0.437626611 L0.00579710332,0.437626611 L0.00579710332,10.9379308 L0.00579710332,10.9379308 Z"></path>
    </defs>
    <g id="Page-1" stroke="none" stroke-width="1" fill="none" fill-rule="evenodd">
        <g id="Artboard-1" transform="translate(-1108.000000, -749.000000)">
            <g id="empty-truck" transform="translate(1108.000000, 744.000000)">
                <g id="Page-1" transform="translate(0.000000, 4.000000)">
                    <path d="M13.1522055,19.6678215 L0.000437517232,19.6678215 L0.000437517232,25.5480531 L9.660818,25.5480531 C9.66628696,23.0126407 11.0750924,20.8075539 13.1522055,19.6678215" id="Fill-1" fill="#5596E6"></path>
                    <g id="Group-5" transform="translate(19.594482, 0.148756)">
                        <mask id="mask-2" fill="white">
                            <use xlink:href="#path-1"></use>
                        </mask>
                        <g id="Clip-4"></g>
                        <path d="M45.2747757,11.2121447 L33.5843153,11.2121447 L33.5843153,4.0248304 L43.3847012,4.0248304 C43.9217536,4.0248304 44.2947371,5.21487727 44.2947371,5.21487727 L46.044806,10.3721116 C46.3018474,11.2121447 45.2747757,11.2121447 45.2747757,11.2121447 M46.9078088,4.0718635 C45.9048005,0.944709083 44.6217812,0.944709083 44.6217812,0.944709083 L30.6212298,0.944709083 L30.6212298,19.5195032 L0.0147118401,19.5195032 C2.0918249,20.6592356 3.50063039,22.8643224 3.50609935,25.3997348 L33.7483842,25.3997348 C33.7560408,21.6950576 36.7617841,18.6936894 40.4675551,18.6936894 C44.1744198,18.6936894 47.1801632,21.6950576 47.1878198,25.3997348 L47.7019025,25.3997348 C50.4079466,25.5856796 50.4079466,23.9056134 50.4079466,23.9056134 L50.4079466,14.5722771 C48.9849218,10.3250785 46.9078088,4.0718635 46.9078088,4.0718635" id="Fill-3" fill="#5596E6" mask="url(#mask-2)"></path>
                    </g>
                    <g id="Group-8" transform="translate(10.937931, 19.837031)">
                        <mask id="mask-4" fill="white">
                            <use xlink:href="#path-3"></use>
                        </mask>
                        <g id="Clip-7"></g>
                        <path d="M5.55942209,8.53278919 C3.98764143,8.53278919 2.71446629,7.25852026 2.71446629,5.68783339 C2.71446629,4.11605274 3.98764143,2.84287759 5.55942209,2.84287759 C7.13120274,2.84287759 8.40437789,4.11605274 8.40437789,5.68783339 C8.40437789,7.25852026 7.13120274,8.53278919 5.55942209,8.53278919 M5.55942209,0.437626611 C2.65977663,0.437626611 0.309215304,2.78818794 0.309215304,5.68783339 C0.309215304,8.58747885 2.65977663,10.9380402 5.55942209,10.9380402 C8.45906754,10.9380402 10.8096289,8.58747885 10.8096289,5.68783339 C10.8096289,2.78818794 8.45906754,0.437626611 5.55942209,0.437626611" id="Fill-6" fill="#FEFEFE" mask="url(#mask-4)"></path>
                    </g>
                    <g id="Group-11" transform="translate(54.689654, 19.837031)">
                        <mask id="mask-6" fill="white">
                            <use xlink:href="#path-5"></use>
                        </mask>
                        <g id="Clip-10"></g>
                        <path d="M5.25600389,8.53278919 C3.68422323,8.53278919 2.41104809,7.25852026 2.41104809,5.68783339 C2.41104809,4.11605274 3.68422323,2.84287759 5.25600389,2.84287759 C6.82778454,2.84287759 8.10095969,4.11605274 8.10095969,5.68783339 C8.10095969,7.25852026 6.82778454,8.53278919 5.25600389,8.53278919 M5.25600389,0.437626611 C2.35635843,0.437626611 0.00579710332,2.78818794 0.00579710332,5.68783339 C0.00579710332,8.58747885 2.35635843,10.9380402 5.25600389,10.9380402 C8.15564934,10.9380402 10.5062107,8.58747885 10.5062107,5.68783339 C10.5062107,2.78818794 8.15564934,0.437626611 5.25600389,0.437626611" id="Fill-9" fill="#FEFEFE" mask="url(#mask-6)"></path>
                    </g>
                </g>
                <path d="M17,9.1065625 L31.0721875,9.1065625 L31.0721875,0 L17,0 L17,9.1065625 Z" id="Fill-17"></path>
            </g>
        </g>
    </g>
</svg>