<?xml version="1.0" encoding="UTF-8" standalone="no"?>
<svg width="73px" height="98px" viewBox="0 0 73 98" version="1.1" xmlns="http://www.w3.org/2000/svg" xmlns:xlink="http://www.w3.org/1999/xlink">
    <!-- Generator: Sketch 3.6 (26304) - http://www.bohemiancoding.com/sketch -->
    <title>Artboard 18 Copy 7</title>
    <desc>Created with Sketch.</desc>
    <defs>
        <path id="path-1" d="M55.7100952,36.0173714 L55.7100952,0.463847619 L0.409747485,0.463847619 L0.409747485,36.0173714 L55.7100952,36.0173714 L55.7100952,36.0173714 Z"></path>
        <path id="path-3" d="M0,93.4761905 L68.9005714,93.4761905 L68.9005714,0.00723809524 L0,0.00723809524 L0,93.4761905 Z"></path>
    </defs>
    <g id="Page-2" stroke="none" stroke-width="1" fill="none" fill-rule="evenodd">
        <g id="Artboard-18-Copy-7">
            <g id="Page-1" transform="translate(2.000000, 2.000000)">
                <path d="M0,59.0796952 L0,93.9916952 L30.4746667,93.9916952 L30.4746667,84.5974095 L38.424381,84.5974095 L38.424381,93.9916952 L68.9005714,93.9916952 L68.9005714,59.0796952 L0,59.0796952 Z" id="Fill-1" fill="#5596E6"></path>
                <path d="M5.856,77.4527238 L10.5752381,77.4527238 L10.5752381,72.7334857 L5.856,72.7334857 L5.856,77.4527238 Z" id="Fill-2" fill="#FEFEFE"></path>
                <path d="M5.856,84.163581 L10.5752381,84.163581 L10.5752381,79.4443429 L5.856,79.4443429 L5.856,84.163581 Z" id="Fill-3" fill="#FEFEFE"></path>
                <path d="M12.9371429,77.4527238 L17.656381,77.4527238 L17.656381,72.7334857 L12.9371429,72.7334857 L12.9371429,77.4527238 Z" id="Fill-4" fill="#FEFEFE"></path>
                <path d="M12.9371429,84.163581 L17.656381,84.163581 L17.656381,79.4443429 L12.9371429,79.4443429 L12.9371429,84.163581 Z" id="Fill-5" fill="#FEFEFE"></path>
                <path d="M20.0182857,77.4527238 L24.7375238,77.4527238 L24.7375238,72.7334857 L20.0182857,72.7334857 L20.0182857,77.4527238 Z" id="Fill-6" fill="#FEFEFE"></path>
                <path d="M20.0182857,84.163581 L24.7375238,84.163581 L24.7375238,79.4443429 L20.0182857,79.4443429 L20.0182857,84.163581 Z" id="Fill-7" fill="#FEFEFE"></path>
                <g id="Group-28" transform="translate(0.000000, 0.515962)">
                    <path d="M3.57302857,18.3467429 C3.74064762,19.4240762 4.67017143,19.9391238 5.56007619,19.9193143 C7.5943619,19.8736 9.62864762,19.9056 11.6629333,19.9056 C12.7798857,19.9040762 13.2949333,19.5033143 13.5524571,18.4351238 L13.5524571,17.6336 C13.4838857,16.8762667 13.0694095,16.3673143 12.3654095,16.1417905 C11.9936,16.0229333 11.8656,15.9894095 11.7817905,15.6389333 C11.5440762,14.649981 10.9756952,13.8804571 9.95931429,13.6564571 C8.8423619,13.4096 7.76350476,13.5391238 7.01531429,14.5768381 C6.86140952,14.7916952 5.91969524,15.881219 5.23702857,16.0305524 C4.5528381,16.1783619 3.45417143,16.2682667 3.57302857,18.3467429 L3.57302857,18.3467429 Z" id="Fill-8" fill="#FEFEFE"></path>
                    <path d="M13.5145143,17.6768762 C13.348419,16.5995429 12.420419,16.0844952 11.5335619,16.1043048 C9.50537143,16.150019 7.47718095,16.118019 5.44899048,16.118019 C4.33508571,16.1195429 3.8215619,16.5203048 3.5640381,17.5884952 L3.5640381,18.390019 C3.63260952,19.1473524 4.04708571,19.6563048 4.7495619,19.8818286 C5.11984762,20.0006857 5.24632381,20.0342095 5.33013333,20.3846857 C5.56784762,21.3736381 6.13318095,22.1431619 7.14651429,22.3671619 C8.26041905,22.614019 9.33622857,22.4844952 10.0813714,21.446781 C10.2368,21.2319238 11.1754667,20.1424 11.8566095,19.9930667 C12.5377524,19.8452571 13.6333714,19.7553524 13.5145143,17.6768762" id="Fill-10" fill="#FEFEFE"></path>
                    <path d="M3.57302857,4.80540952 C3.74064762,5.88274286 4.67017143,6.39779048 5.56007619,6.37798095 C7.5943619,6.33226667 9.62864762,6.36426667 11.6629333,6.36426667 C12.7798857,6.36274286 13.2949333,5.96198095 13.5524571,4.89379048 L13.5524571,4.09226667 C13.4838857,3.33493333 13.0694095,2.82598095 12.3654095,2.60045714 C11.9936,2.4816 11.8656,2.44807619 11.7817905,2.0976 C11.5440762,1.10864762 10.9756952,0.33912381 9.95931429,0.11512381 C8.8423619,-0.131733333 7.76350476,-0.00220952381 7.01531429,1.03550476 C6.86140952,1.2503619 5.91969524,2.33988571 5.23702857,2.48921905 C4.5528381,2.63702857 3.45417143,2.72693333 3.57302857,4.80540952" id="Fill-12" fill="#FEFEFE"></path>
                    <path d="M13.5145143,4.13539048 C13.348419,3.05805714 12.420419,2.54300952 11.5335619,2.56281905 C9.50537143,2.60853333 7.47718095,2.57653333 5.44899048,2.57653333 C4.33508571,2.57805714 3.8215619,2.97881905 3.5640381,4.04700952 L3.5640381,4.84853333 C3.63260952,5.60586667 4.04708571,6.11481905 4.7495619,6.34034286 C5.11984762,6.4592 5.24632381,6.49272381 5.33013333,6.8432 C5.56784762,7.83215238 6.13318095,8.60167619 7.14651429,8.82567619 C8.26041905,9.07253333 9.33622857,8.94300952 10.0813714,7.90529524 C10.2368,7.6904381 11.1754667,6.60091429 11.8566095,6.45158095 C12.5377524,6.30377143 13.6333714,6.21386667 13.5145143,4.13539048" id="Fill-14" fill="#FEFEFE"></path>
                    <g id="Group-18" transform="translate(13.190476, 26.428571)">
                        <mask id="mask-2" fill="white">
                            <use xlink:href="#path-1"></use>
                        </mask>
                        <g id="Clip-17"></g>
                        <path d="M5.8224,28.5583238 L2.34049524,28.5583238 C0.365638095,28.5583238 0.409828571,30.1842286 0.409828571,30.1842286 L0.409828571,34.0867048 C0.409828571,35.9015619 2.34049524,36.0173714 2.34049524,36.0173714 L55.7104,36.0173714 L55.7104,28.5583238 L11.8018286,28.5583238 L11.1557333,0.463847619 L6.62849524,0.463847619 L5.8224,28.5583238 Z" id="Fill-16" fill="#FEFEFE" mask="url(#mask-2)"></path>
                    </g>
                    <path d="M5.41257143,54.9868952 L0,54.9868952 L0,62.4459429 L15.6571429,62.4459429 C16.8472381,62.4459429 16.9645714,61.1400381 16.9645714,61.1400381 L16.9645714,56.9023238 C16.9645714,55.2185143 15.047619,54.9868952 15.047619,54.9868952 L11.392,54.9868952 L10.7459048,26.892419 L6.21866667,26.892419 L5.41257143,54.9868952 Z" id="Fill-19" fill="#FEFEFE"></path>
                    <mask id="mask-4" fill="white">
                        <use xlink:href="#path-3"></use>
                    </mask>
                    <g id="Clip-22"></g>
                    <path d="M44.1630476,76.9367619 L48.8822857,76.9367619 L48.8822857,72.2175238 L44.1630476,72.2175238 L44.1630476,76.9367619 Z" id="Fill-21" fill="#FEFEFE" mask="url(#mask-4)"></path>
                    <path d="M44.1630476,83.647619 L48.8822857,83.647619 L48.8822857,78.928381 L44.1630476,78.928381 L44.1630476,83.647619 Z" id="Fill-23" fill="#FEFEFE" mask="url(#mask-4)"></path>
                    <path d="M51.2441905,76.9367619 L55.9634286,76.9367619 L55.9634286,72.2175238 L51.2441905,72.2175238 L51.2441905,76.9367619 Z" id="Fill-24" fill="#FEFEFE" mask="url(#mask-4)"></path>
                    <path d="M51.2441905,83.647619 L55.9634286,83.647619 L55.9634286,78.928381 L51.2441905,78.928381 L51.2441905,83.647619 Z" id="Fill-25" fill="#FEFEFE" mask="url(#mask-4)"></path>
                    <path d="M58.3253333,76.9367619 L63.0445714,76.9367619 L63.0445714,72.2175238 L58.3253333,72.2175238 L58.3253333,76.9367619 Z" id="Fill-26" fill="#FEFEFE" mask="url(#mask-4)"></path>
                    <path d="M58.3253333,83.647619 L63.0445714,83.647619 L63.0445714,78.928381 L58.3253333,78.928381 L58.3253333,83.647619 Z" id="Fill-27" fill="#FEFEFE" mask="url(#mask-4)"></path>
                </g>
            </g>
        </g>
    </g>
</svg>