<?xml version="1.0" encoding="UTF-8" standalone="no"?>
<svg width="90px" height="55px" viewBox="0 0 90 55" version="1.1" xmlns="http://www.w3.org/2000/svg" xmlns:xlink="http://www.w3.org/1999/xlink">
    <!-- Generator: Sketch 3.6.1 (26313) - http://www.bohemiancoding.com/sketch -->
    <title>full-ship</title>
    <desc>Created with Sketch.</desc>
    <defs>
        <path id="path-1" d="M89.620304,9.28342616 L89.620304,0.085417742 L0.00028006345,0.085417742 L0.00028006345,9.28342616 L89.620304,9.28342616 L89.620304,9.28342616 Z"></path>
    </defs>
    <g id="Page-1" stroke="none" stroke-width="1" fill="none" fill-rule="evenodd">
        <g id="Artboard-1" transform="translate(-526.000000, -628.000000)">
            <g id="full-ship" transform="translate(526.000000, 628.000000)">
                <path d="M19.6828593,30.6481355 L27.1549521,30.6481355 L27.1549521,25.022786 L19.6828593,25.022786 L19.6828593,30.6481355 Z" id="Fill-1" fill="#FEFEFE"></path>
                <path d="M28.531464,30.6481355 L36.0035568,30.6481355 L36.0035568,25.022786 L28.531464,25.022786 L28.531464,30.6481355 Z" id="Fill-2" fill="#FEFEFE"></path>
                <path d="M19.6828593,23.7146031 L27.1549521,23.7146031 L27.1549521,18.0892536 L19.6828593,18.0892536 L19.6828593,23.7146031 Z" id="Fill-3" fill="#FEFEFE"></path>
                <path d="M10.9238749,30.6481355 L18.3959677,30.6481355 L18.3959677,25.022786 L10.9238749,25.022786 L10.9238749,30.6481355 Z" id="Fill-4" fill="#FEFEFE"></path>
                <path d="M10.9238749,23.7146031 L18.3959677,23.7146031 L18.3959677,18.0892536 L10.9238749,18.0892536 L10.9238749,23.7146031 Z" id="Fill-5" fill="#FEFEFE"></path>
                <path d="M28.531464,23.7146031 L36.0035568,23.7146031 L36.0035568,18.0892536 L28.531464,18.0892536 L28.531464,23.7146031 Z" id="Fill-6" fill="#FEFEFE"></path>
                <g id="Group-14" transform="translate(0.000000, 0.305786)">
                    <path d="M62.3832932,30.1965437 L62.3832932,23.8820773 L55.6253622,23.8820766 L55.156256,0.101819966 L51.8613095,0.101819966 L51.2759769,23.8820766 L44.6342722,23.8820773 L44.6342722,30.1965437 L46.0387904,30.1965436" id="Fill-7" fill="#FEFEFE"></path>
                    <path d="M5.99713869,54.5755016 L70.3893271,54.5755016 L81.7136927,41.4024417 L2.46553858,41.4024417 L5.99713869,54.5755016 Z" id="Fill-9" fill="#5596E6"></path>
                    <g id="Group-13" transform="translate(0.000000, 32.118038)">
                        <mask id="mask-2" fill="white">
                            <use xlink:href="#path-1"></use>
                        </mask>
                        <g id="Clip-12"></g>
                        <path d="M78.130981,6.33309083 L74.0000451,6.33309083 C74.0000451,6.33309083 73.6219595,6.29236285 73.6219595,5.66352274 L73.6219595,4.30972448 C73.6219595,4.30972448 73.6135576,3.74442003 74.0000451,3.74442003 L75.6776252,3.74442003 L76.3007664,3.74442003 L78.0119541,3.74442003 C78.0119541,3.74442003 78.3858388,3.825876 78.3858388,4.40910076 L78.3858388,5.88019563 C78.3858388,5.88019563 78.3634337,6.33309083 78.130981,6.33309083 L78.130981,6.33309083 Z M71.1896084,5.88019563 C71.1896084,5.88019563 71.1672033,6.33309083 70.9347507,6.33309083 L66.8024145,6.33309083 C66.8024145,6.33309083 66.4257291,6.29236285 66.4257291,5.66352274 L66.4257291,4.30972448 C66.4257291,4.30972448 66.4173272,3.74442003 66.8024145,3.74442003 L68.4799945,3.74442003 L69.104536,3.74442003 L70.8157237,3.74442003 C70.8157237,3.74442003 71.1896084,3.825876 71.1896084,4.40910076 L71.1896084,5.88019563 Z M18.9213667,6.87395849 C18.0503694,6.87395849 17.3446095,6.05288229 17.3446095,5.03956999 C17.3446095,4.02625769 18.0503694,3.20518149 18.9213667,3.20518149 C19.7923641,3.20518149 20.498124,4.02625769 20.498124,5.03956999 C20.498124,6.05288229 19.7923641,6.87395849 18.9213667,6.87395849 L18.9213667,6.87395849 Z M13.3341009,6.87395849 C12.4645039,6.87395849 11.7573437,6.05288229 11.7573437,5.03956999 C11.7573437,4.02625769 12.4645039,3.20518149 13.3341009,3.20518149 C14.2050982,3.20518149 14.9108581,4.02625769 14.9108581,5.03956999 C14.9108581,6.05288229 14.2050982,6.87395849 13.3341009,6.87395849 L13.3341009,6.87395849 Z M7.74823541,6.87395849 C6.87723808,6.87395849 6.17147818,6.05288229 6.17147818,5.03956999 C6.17147818,4.02625769 6.87723808,3.20518149 7.74823541,3.20518149 C8.61923274,3.20518149 9.32499263,4.02625769 9.32499263,5.03956999 C9.32499263,6.05288229 8.61923274,6.87395849 7.74823541,6.87395849 L7.74823541,6.87395849 Z M0.00028006345,0.085417742 L2.46623874,9.28342616 L81.7129926,9.28342616 L89.6205841,0.085417742 L0.00028006345,0.085417742 Z" id="Fill-11" fill="#FEFEFE" mask="url(#mask-2)"></path>
                    </g>
                </g>
            </g>
        </g>
    </g>
</svg>