<?xml version="1.0" encoding="UTF-8" standalone="no"?>
<svg width="68px" height="41px" viewBox="0 0 68 41" version="1.1" xmlns="http://www.w3.org/2000/svg" xmlns:xlink="http://www.w3.org/1999/xlink">
    <!-- Generator: Sketch 3.6 (26304) - http://www.bohemiancoding.com/sketch -->
    <title>Artboard 18 Copy 8</title>
    <desc>Created with Sketch.</desc>
    <defs></defs>
    <g id="Page-2" stroke="none" stroke-width="1" fill="none" fill-rule="evenodd">
        <g id="Artboard-18-Copy-8">
            <g id="Page-1" transform="translate(2.000000, 2.000000)">
                <path d="M0,4.08523636 L0,36.5157818 L25.5869091,36.5157818 L25.6392727,27.0728727 L38.1367273,27.0728727 L38.0829091,36.5157818 L63.6698182,36.5157818 L63.6698182,4.08523636 L0,4.08523636 Z" id="Fill-1" fill="#5596E6"></path>
                <path d="M35.3975273,26.9544727 L40.2542545,26.9544727 L37.9604364,22.9035636 L34.7182545,22.9035636 L35.3975273,26.9544727 Z" id="Fill-2" fill="#FEFEFE"></path>
                <path d="M33.6362182,22.9037091 L30.0347636,22.9037091 L29.3554909,26.9546182 L34.3154909,26.9546182 L33.6362182,22.9037091 Z" id="Fill-3" fill="#FEFEFE"></path>
                <path d="M28.9514182,22.9037091 L25.5434182,22.9037091 L23.4154182,26.9546182 L28.2721455,26.9546182 L28.9514182,22.9037091 Z" id="Fill-4" fill="#FEFEFE"></path>
                <path d="M45.0432,-0.000436363636 L45.7224727,4.05047273 L63.6701091,4.05047273 L61.3762909,-0.000436363636 L45.0432,-0.000436363636 Z" id="Fill-5" fill="#FEFEFE"></path>
                <path d="M2.12727273,-0.000436363636 L0.000727272728,4.05047273 L46.3949091,4.05047273 L47.0756364,-0.000436363636 L2.12727273,-0.000436363636 Z" id="Fill-6" fill="#FEFEFE"></path>
                <path d="M14.6341818,17.6775273 L21.5432727,17.6775273 L21.5432727,10.7684364 L14.6341818,10.7684364 L14.6341818,17.6775273 Z" id="Fill-7" fill="#FEFEFE"></path>
                <path d="M23.7992727,17.6775273 L30.7083636,17.6775273 L30.7083636,10.7684364 L23.7992727,10.7684364 L23.7992727,17.6775273 Z" id="Fill-8" fill="#FEFEFE"></path>
                <path d="M32.9629091,17.6775273 L39.872,17.6775273 L39.872,10.7684364 L32.9629091,10.7684364 L32.9629091,17.6775273 Z" id="Fill-9" fill="#FEFEFE"></path>
                <path d="M42.1265455,17.6775273 L49.0356364,17.6775273 L49.0356364,10.7684364 L42.1265455,10.7684364 L42.1265455,17.6775273 Z" id="Fill-10" fill="#FEFEFE"></path>
            </g>
        </g>
    </g>
</svg>