<?xml version="1.0" encoding="UTF-8" standalone="no"?>
<svg width="98px" height="98px" viewBox="0 0 98 98" version="1.1" xmlns="http://www.w3.org/2000/svg" xmlns:xlink="http://www.w3.org/1999/xlink">
    <!-- Generator: Sketch 3.6.1 (26313) - http://www.bohemiancoding.com/sketch -->
    <title>Artboard 17</title>
    <desc>Created with Sketch.</desc>
    <defs></defs>
    <g id="Icons" stroke="none" stroke-width="1" fill="none" fill-rule="evenodd">
        <g id="Artboard-17" fill="#222222">
            <g id="Group-18-Copy-2" transform="translate(7.000000, 3.000000)">
                <g id="Group-2">
                    <path d="M36,48 L36,41.6 L36,6.4 L36,1.42108547e-14 L7.10542736e-15,7.10542736e-15 L7.10542736e-15,6.4 L0,41.6 L0,48 L36,48 Z M32,4 L32,41 L4,41 L4,4 L32,4 Z M15,43.9989566 C15,43.4472481 15.4509752,43 15.990778,43 L20.009222,43 C20.5564136,43 21,43.4426603 21,43.9989566 L21,45.0010434 C21,45.5527519 20.5490248,46 20.009222,46 L15.990778,46 C15.4435864,46 15,45.5573397 15,45.0010434 L15,43.9989566 Z" id="Combined-Shape"></path>
                </g>
                <g id="Group-2" transform="translate(60.000000, 74.000000) rotate(-270.000000) translate(-60.000000, -74.000000) translate(42.000000, 50.000000)">
                    <path d="M36,48 L36,41.6 L36,6.4 L36,0 L0,-7.10542736e-15 L0,6.4 L-7.10542736e-15,41.6 L-7.10542736e-15,48 L36,48 Z M32,4 L32,41 L4,41 L4,4 L32,4 Z M15,43.9989566 C15,43.4472481 15.4509752,43 15.990778,43 L20.009222,43 C20.5564136,43 21,43.4426603 21,43.9989566 L21,45.0010434 C21,45.5527519 20.5490248,46 20.009222,46 L15.990778,46 C15.4435864,46 15,45.5573397 15,45.0010434 L15,43.9989566 Z" id="Combined-Shape"></path>
                </g>
                <path d="M47,16.00412 C47.1335171,16.0013778 47.2673635,16 47.4015258,16 C58.0291106,16 66.6747641,24.6456535 66.6747641,35.2732383 L66.6747641,39.8502309 L73.5697651,32.9560329 L75.840795,35.2270628 L65.0686609,46 L54.2965268,35.2270628 L56.5675567,32.9560329 L63.4625577,39.8502309 L63.4625577,35.2732383 C63.4625577,26.4171853 56.2575788,19.2122064 47.4015258,19.2122064 C47.2672981,19.2122064 47.1334498,19.2138615 47,19.2171525 L47,16.00412 Z" id="Combined-Shape"></path>
            </g>
        </g>
    </g>
</svg>