<?xml version="1.0" encoding="UTF-8" standalone="no"?>
<svg width="26px" height="26px" viewBox="0 0 26 26" version="1.1" xmlns="http://www.w3.org/2000/svg" xmlns:xlink="http://www.w3.org/1999/xlink">
    <!-- Generator: Sketch 3.6.1 (26313) - http://www.bohemiancoding.com/sketch -->
    <title>get-information_32</title>
    <desc>Created with Sketch.</desc>
    <defs></defs>
    <g id="Page-2" stroke="none" stroke-width="1" fill="none" fill-rule="evenodd">
        <g id="Desktop-HD-Copy-3" transform="translate(-1266.000000, -345.000000)" fill="#5596E6">
            <g id="get-information_32" transform="translate(1266.000000, 345.000000)">
                <g id="Group">
                    <path d="M14.8571429,11.1428571 L9.28571429,11.1428571 L9.28571429,13 L11.1428571,13 L11.1428571,18.5714286 L9.28571429,18.5714286 L9.28571429,20.4285714 L16.7142857,20.4285714 L16.7142857,18.5714286 L14.8571429,18.5714286 L14.8571429,11.1428571 Z" id="Shape"></path>
                    <circle id="Oval" cx="13" cy="7.42857143" r="1.85714286"></circle>
                    <path d="M13,0 C5.82121429,0 0,5.82121429 0,13 C0,20.1787857 5.82121429,26 13,26 C20.1787857,26 26,20.1787857 26,13 C26,5.82121429 20.1787857,0 13,0 L13,0 Z M13,24.1428571 C6.85564286,24.1428571 1.85714286,19.1443571 1.85714286,13 C1.85714286,6.85564286 6.85564286,1.85714286 13,1.85714286 C19.1443571,1.85714286 24.1428571,6.85564286 24.1428571,13 C24.1428571,19.1443571 19.1443571,24.1428571 13,24.1428571 L13,24.1428571 Z" id="Shape"></path>
                </g>
            </g>
        </g>
    </g>
</svg>