<?xml version="1.0" encoding="utf-8"?>
<!-- Generator: Adobe Illustrator 19.1.0, SVG Export Plug-In . SVG Version: 6.00 Build 0)  -->
<svg version="1.1" id="Layer_1" xmlns="http://www.w3.org/2000/svg" xmlns:xlink="http://www.w3.org/1999/xlink" x="0px" y="0px"
	 viewBox="-909 505.2 100 70.8" style="enable-background:new -909 505.2 100 70.8;" xml:space="preserve">
<style type="text/css">
	.st0{fill:#FFFFFF;}
	.st1{font-family:'HelveticaNeue', helvetica, arial, sans-serif;}
	.st2{font-size:2.9814px;}
	.st3{fill:#5596E6;}
	.st4{fill:#1F343D;}
</style>
<circle class="st0" cx="-882.3" cy="509.4" r="4.2"/>
<text transform="matrix(1 0 0 1 -876.0839 510.4859)"><tspan x="0" y="0" class="st0 st1 st2">Watson Internet of Things</tspan></text>
<path class="st0" d="M-879,534.9c0.1,0,0.2-0.1,0.2-0.2c0-0.1-0.1-0.2-0.2-0.2h-1v-0.8h1c0.1,0,0.2-0.1,0.2-0.2s-0.1-0.2-0.2-0.2h-1
	v-0.9h-0.4v-1c0-0.1-0.1-0.2-0.2-0.2h-0.3c-0.1,0-0.2,0.1-0.2,0.2v1h-0.6v-1c0-0.1-0.1-0.2-0.2-0.2h-0.3c-0.1,0-0.2,0.1-0.2,0.2v1
	h-0.6v-1c0-0.1-0.1-0.2-0.2-0.2h-0.3c-0.1,0-0.2,0.1-0.2,0.2v1h-0.4v0.9h-1c-0.1,0-0.2,0.1-0.2,0.2s0.1,0.2,0.2,0.2h1v0.8h-1
	c-0.1,0-0.2,0.1-0.2,0.2c0,0.1,0.1,0.2,0.2,0.2h1v0.8h-1c-0.1,0-0.2,0.1-0.2,0.2c0,0.1,0.1,0.2,0.2,0.2h1v0.6h0.4v1
	c0,0.1,0.1,0.2,0.2,0.2h0.3c0.1,0,0.2-0.1,0.2-0.2v-1h0.6v1c0,0.1,0.1,0.2,0.2,0.2h0.3c0.1,0,0.2-0.1,0.2-0.2v-1h0.6v1
	c0,0.1,0.1,0.2,0.2,0.2h0.3c0.1,0,0.2-0.1,0.2-0.2v-1h0.4V536h1c0.1,0,0.2-0.1,0.2-0.2c0-0.1-0.1-0.2-0.2-0.2h-1v-0.8H-879z"/>
<path class="st4" d="M-881,533.5v2.1h-2.1v-2.1H-881 M-880.7,533.2h-2.7v2.7h2.7V533.2L-880.7,533.2z"/>
<path class="st4" d="M-880.5,509.5c0.1,0,0.1,0,0.1-0.1s0-0.1-0.1-0.1h-0.6v-0.5h0.6c0.1,0,0.1,0,0.1-0.1s0-0.1-0.1-0.1h-0.6v-0.5
	h-0.2v-0.6c0-0.1,0-0.1-0.1-0.1h-0.2c-0.1,0-0.1,0-0.1,0.1v0.6h-0.4v-0.6c0-0.1,0-0.1-0.1-0.1h-0.2c-0.1,0-0.1,0-0.1,0.1v0.6h-0.4
	v-0.6c0-0.1,0-0.1-0.1-0.1h-0.2c-0.1,0-0.1,0-0.1,0.1v0.6h-0.3v0.5h-0.6c-0.1,0-0.1,0-0.1,0.1s0,0.1,0.1,0.1h0.6v0.5h-0.6
	c-0.1,0-0.1,0-0.1,0.1s0,0.1,0.1,0.1h0.6v0.5h-0.6c-0.1,0-0.1,0-0.1,0.1s0,0.1,0.1,0.1h0.6v0.4h0.3v0.6c0,0.1,0,0.1,0.1,0.1h0.2
	c0.1,0,0.1,0,0.1-0.1v-0.6h0.4v0.6c0,0.1,0,0.1,0.1,0.1h0.2c0.1,0,0.1,0,0.1-0.1v-0.6h0.4v0.6c0,0.1,0,0.1,0.1,0.1h0.2
	c0.1,0,0.1,0,0.1-0.1v-0.6h0.2v-0.4h0.6c0.1,0,0.1,0,0.1-0.1s0-0.1-0.1-0.1h-0.6v-0.5H-880.5z"/>
<circle class="st0" cx="-882.3" cy="509.3" r="0.5"/>
</svg>
