<?xml version="1.0" encoding="UTF-8" standalone="no"?>
<svg width="100px" height="54px" viewBox="0 0 100 54" version="1.1" xmlns="http://www.w3.org/2000/svg" xmlns:xlink="http://www.w3.org/1999/xlink">
    <!-- Generator: Sketch 3.6 (26304) - http://www.bohemiancoding.com/sketch -->
    <title>Artboard 18 Copy 5</title>
    <desc>Created with Sketch.</desc>
    <defs>
        <path id="path-1" d="M95.5949909,8.50564832 L95.5949909,0.0782613295 L0.000298734347,0.0782613295 L0.000298734347,8.50564832 L95.5949909,8.50564832 L95.5949909,8.50564832 Z"></path>
    </defs>
    <g id="Page-2" stroke="none" stroke-width="1" fill="none" fill-rule="evenodd">
        <g id="Artboard-18-Copy-5">
            <path d="M23,23.1540502 L30.9702324,23.1540502 L30.9702324,18 L23,18 L23,23.1540502 Z" id="Fill-3" fill="#FEFEFE"></path>
            <path d="M14,23.1540502 L21.9702324,23.1540502 L21.9702324,18 L14,18 L14,23.1540502 Z" id="Fill-5" fill="#FEFEFE"></path>
            <path d="M32,23.1540502 L39.9702324,23.1540502 L39.9702324,18 L32,18 L32,23.1540502 Z" id="Fill-6" fill="#FEFEFE"></path>
            <path d="M23,29.1540502 L30.9702324,29.1540502 L30.9702324,24 L23,24 L23,29.1540502 Z" id="Fill-1" fill="#FEFEFE"></path>
            <path d="M32,29.1540502 L39.9702324,29.1540502 L39.9702324,24 L32,24 L32,29.1540502 Z" id="Fill-2" fill="#FEFEFE"></path>
            <path d="M14,29.1540502 L21.9702324,29.1540502 L21.9702324,24 L14,24 L14,29.1540502 Z" id="Fill-4" fill="#FEFEFE"></path>
            <g id="Group-14" transform="translate(2.000000, 2.000000)">
                <path d="M66.5421794,27.666637 L66.5421794,21.881205 L59.3337197,21.8812043 L58.8333397,0.093289353 L55.3187301,0.093289353 L54.6943753,21.8812043 L47.6098903,21.881205 L47.6098903,27.666637 L49.108043,27.6666368" id="Fill-7" fill="#FEFEFE"></path>
                <path d="M6.39694793,50.0030932 L75.0819489,50.0030932 L87.1612722,37.9336899 L2.62990782,37.9336899 L6.39694793,50.0030932 Z" id="Fill-9" fill="#5596E6"></path>
                <g id="Group-13" transform="translate(0.000000, 29.427146)">
                    <mask id="mask-2" fill="white">
                        <use xlink:href="#path-1"></use>
                    </mask>
                    <g id="Clip-12"></g>
                    <path d="M83.3397131,5.80249603 L78.9333815,5.80249603 C78.9333815,5.80249603 78.5300901,5.76518029 78.5300901,5.18902524 L78.5300901,3.94865001 C78.5300901,3.94865001 78.5211281,3.43070752 78.9333815,3.43070752 L80.7228002,3.43070752 L81.3874841,3.43070752 L83.212751,3.43070752 C83.212751,3.43070752 83.6115613,3.505339 83.6115613,4.03970042 L83.6115613,5.38754499 C83.6115613,5.38754499 83.5876626,5.80249603 83.3397131,5.80249603 L83.3397131,5.80249603 Z M75.9355823,5.38754499 C75.9355823,5.38754499 75.9116836,5.80249603 75.6637341,5.80249603 L71.2559088,5.80249603 C71.2559088,5.80249603 70.8541111,5.76518029 70.8541111,5.18902524 L70.8541111,3.94865001 C70.8541111,3.94865001 70.845149,3.43070752 71.2559088,3.43070752 L73.0453275,3.43070752 L73.7115051,3.43070752 L75.536772,3.43070752 C75.536772,3.43070752 75.9355823,3.505339 75.9355823,4.03970042 L75.9355823,5.38754499 Z M20.1827912,6.29804907 C19.2537274,6.29804907 18.5009168,5.54576373 18.5009168,4.61734809 C18.5009168,3.68893245 19.2537274,2.93664711 20.1827912,2.93664711 C21.111855,2.93664711 21.8646656,3.68893245 21.8646656,4.61734809 C21.8646656,5.54576373 21.111855,6.29804907 20.1827912,6.29804907 L20.1827912,6.29804907 Z M14.223041,6.29804907 C13.2954708,6.29804907 12.5411666,5.54576373 12.5411666,4.61734809 C12.5411666,3.68893245 13.2954708,2.93664711 14.223041,2.93664711 C15.1521048,2.93664711 15.9049154,3.68893245 15.9049154,4.61734809 C15.9049154,5.54576373 15.1521048,6.29804907 14.223041,6.29804907 L14.223041,6.29804907 Z M8.26478443,6.29804907 C7.33572062,6.29804907 6.58291006,5.54576373 6.58291006,4.61734809 C6.58291006,3.68893245 7.33572062,2.93664711 8.26478443,2.93664711 C9.19384825,2.93664711 9.94665881,3.68893245 9.94665881,4.61734809 C9.94665881,5.54576373 9.19384825,6.29804907 8.26478443,6.29804907 L8.26478443,6.29804907 Z M0.000298734347,0.0782613295 L2.63065466,8.50564832 L87.1605254,8.50564832 L95.5952897,0.0782613295 L0.000298734347,0.0782613295 Z" id="Fill-11" fill="#FEFEFE" mask="url(#mask-2)"></path>
                </g>
            </g>
        </g>
    </g>
</svg>