<?xml version="1.0" encoding="UTF-8" standalone="no"?>
<svg width="100px" height="45px" viewBox="0 0 100 45" version="1.1" xmlns="http://www.w3.org/2000/svg" xmlns:xlink="http://www.w3.org/1999/xlink">
    <!-- Generator: Sketch 3.6 (26304) - http://www.bohemiancoding.com/sketch -->
    <title>Artboard 18 Copy 2</title>
    <desc>Created with Sketch.</desc>
    <defs>
        <path id="path-1" d="M69.49955,0.296 L0.39155,0.296 L0.39155,33.8522565 L69.49955,33.8522565 L69.49955,0.296 L69.49955,0.296 Z"></path>
        <path id="path-3" d="M0.42405,15 L14.82405,15 L14.82405,0.60015 L0.42405,0.60015 L0.42405,15 L0.42405,15 Z"></path>
        <path id="path-5" d="M0.00795,15 L14.40795,15 L14.40795,0.60015 L0.00795,0.60015 L0.00795,15 L0.00795,15 Z"></path>
    </defs>
    <g id="Page-2" stroke="none" stroke-width="1" fill="none" fill-rule="evenodd">
        <g id="Artboard-18-Copy-2">
            <g id="Page-1" transform="translate(2.000000, 2.000000)">
                <g id="Group-3">
                    <path d="M18.0366,25.97195 L0.0006,25.97195 L0.0006,34.03595 L13.2486,34.03595 C13.2561,30.55895 15.1881,27.53495 18.0366,25.97195" id="Fill-1" fill="#5596E6"></path>
                    <g id="Group-5" transform="translate(26.500000, 0.204000)">
                        <mask id="mask-2" fill="white">
                            <use xlink:href="#path-1"></use>
                        </mask>
                        <g id="Clip-4"></g>
                        <path d="M62.46005,14.37605 L46.42805,14.37605 L46.42805,4.51955 L59.86805,4.51955 C60.60455,4.51955 61.11605,6.15155 61.11605,6.15155 L63.51605,13.22405 C63.86855,14.37605 62.46005,14.37605 62.46005,14.37605 M64.69955,4.58405 C63.32405,0.29555 61.56455,0.29555 61.56455,0.29555 L42.36455,0.29555 L42.36455,25.76855 L0.39155,25.76855 C3.24005,27.33155 5.17205,30.35555 5.17955,33.83255 L46.65305,33.83255 C46.66355,28.75205 50.78555,24.63605 55.86755,24.63605 C60.95105,24.63605 65.07305,28.75205 65.08355,33.83255 L65.78855,33.83255 C69.49955,34.08755 69.49955,31.78355 69.49955,31.78355 L69.49955,18.98405 C67.54805,13.15955 64.69955,4.58405 64.69955,4.58405" id="Fill-3" fill="#5596E6" mask="url(#mask-2)"></path>
                    </g>
                </g>
                <g id="Group-8" transform="translate(15.000000, 26.204000)">
                    <mask id="mask-4" fill="white">
                        <use xlink:href="#path-3"></use>
                    </mask>
                    <g id="Clip-7"></g>
                    <path d="M7.62405,11.70165 C5.46855,11.70165 3.72255,9.95415 3.72255,7.80015 C3.72255,5.64465 5.46855,3.89865 7.62405,3.89865 C9.77955,3.89865 11.52555,5.64465 11.52555,7.80015 C11.52555,9.95415 9.77955,11.70165 7.62405,11.70165 M7.62405,0.60015 C3.64755,0.60015 0.42405,3.82365 0.42405,7.80015 C0.42405,11.77665 3.64755,15.00015 7.62405,15.00015 C11.60055,15.00015 14.82405,11.77665 14.82405,7.80015 C14.82405,3.82365 11.60055,0.60015 7.62405,0.60015" id="Fill-6" fill="#FEFEFE" mask="url(#mask-4)"></path>
                </g>
                <g id="Group-11" transform="translate(75.000000, 26.204000)">
                    <mask id="mask-6" fill="white">
                        <use xlink:href="#path-5"></use>
                    </mask>
                    <g id="Clip-10"></g>
                    <path d="M7.20795,11.70165 C5.05245,11.70165 3.30645,9.95415 3.30645,7.80015 C3.30645,5.64465 5.05245,3.89865 7.20795,3.89865 C9.36345,3.89865 11.10945,5.64465 11.10945,7.80015 C11.10945,9.95415 9.36345,11.70165 7.20795,11.70165 M7.20795,0.60015 C3.23145,0.60015 0.00795,3.82365 0.00795,7.80015 C0.00795,11.77665 3.23145,15.00015 7.20795,15.00015 C11.18445,15.00015 14.40795,11.77665 14.40795,7.80015 C14.40795,3.82365 11.18445,0.60015 7.20795,0.60015" id="Fill-9" fill="#FEFEFE" mask="url(#mask-6)"></path>
                </g>
            </g>
        </g>
    </g>
</svg>